<mxfile host="app.diagrams.net" modified="2023-11-28T18:32:02.330Z" agent="Mozilla/5.0 (Windows NT 10.0; Win64; x64) AppleWebKit/537.36 (KHTML, like Gecko) Chrome/119.0.0.0 Safari/537.36 Edg/119.0.0.0" version="22.1.4" etag="PvA3FHCyz1uvxV6L7dqU" type="github">
  <diagram name="Page-1" id="nH_QK7nLuGu8R7ya7qT2">
    <mxGraphModel>
      <root>
        <mxCell id="0" />
        <mxCell id="1" parent="0" />
      </root>
    </mxGraphModel>
  </diagram>
</mxfile>
